<svg width="50" height="43" viewBox="0 0 50 43" fill="none" xmlns="http://www.w3.org/2000/svg">
<path d="M2.98755 11.1946L1.3001 14.5695L0.164062 3.69434L2.98755 11.1946Z" fill="#F4901E"/>
<path d="M0 3.10986L3.73148 10.9874L8.8975 12.8283L0 3.10986Z" fill="#F4901E"/>
<path d="M47.3347 2.5374C45.5602 0.841654 43.1265 0 40.0501 0C35.6386 0 31.335 1.73307 27.1433 5.1992C22.9475 8.66533 19.6264 12.8778 17.172 17.8323C16.691 18.8067 16.2557 19.7727 15.8701 20.7304C11.4669 19.9676 7.56961 17.227 4.7793 13.6904C6.61187 18.6491 9.8624 22.4013 14.1121 24.777C14.1163 24.777 14.1246 24.777 14.1287 24.7853C16.9564 26.1742 20.2069 26.8376 23.7435 27.1278H23.7559C27.3755 26.9537 30.6467 26.5059 33.5863 25.7887L34.0507 25.6684C37.438 24.7977 40.3486 23.5581 42.7906 21.9452C47.5959 18.761 50.0007 14.6067 50.0007 9.46966C50.0007 6.53838 49.1134 4.22486 47.3347 2.5374ZM36.9032 16.7419C33.9678 18.3796 30.2694 19.3581 25.7917 19.6815C27.4211 16.3397 29.4153 13.508 31.7828 11.1861C34.1419 8.86434 36.3766 7.70342 38.4745 7.70342C40.3569 7.70342 41.3022 8.66532 41.3022 10.5932C41.3022 13.056 39.8303 15.1001 36.9032 16.7419Z" fill="white"/>
<path d="M25.3388 36.3862C18.6263 34.8355 21.5576 28.7408 21.6446 28.5625C21.8975 28.5501 22.1504 28.5418 22.3992 28.5293C19.2399 28.2723 16.3418 27.6794 13.8168 26.4355C13.9163 26.4894 14.02 26.5475 14.1236 26.6014C13.5556 28.7656 13.2695 30.8801 13.2695 32.9532C13.2695 35.0262 13.6551 36.8091 14.4387 38.2768C14.8285 39.0272 15.326 39.6947 15.9272 40.2793C16.7481 41.0961 17.7514 41.718 18.9123 42.1492C19.4513 42.3482 20.0318 42.5058 20.6371 42.6302V42.6592C21.9141 42.8872 23.1579 42.9536 24.3686 42.8831C31.0148 42.4933 36.6659 37.8995 40.899 32.8164C36.3301 35.2833 30.7411 37.4351 25.3263 36.382L25.3388 36.3862Z" fill="#8CC63F"/>
</svg>
