<svg width="54" height="55" viewBox="0 0 54 55" fill="none" xmlns="http://www.w3.org/2000/svg">
<rect x="0.5" y="1" width="53" height="53" rx="7.5" fill="#0C221E"/>
<rect x="0.5" y="1" width="53" height="53" rx="7.5" stroke="#F1F1F3"/>
<path d="M11.0516 20.1111L9.82898 22.5564L9.00586 14.6768L11.0516 20.1111Z" fill="#F4901E"/>
<path d="M8.88672 14.2534L11.5904 19.9611L15.3334 21.2949L8.88672 14.2534Z" fill="#F4901E"/>
<path d="M43.1832 13.8385C41.8975 12.6098 40.1341 12 37.9051 12C34.7088 12 31.5906 13.2557 28.5535 15.7671C25.5134 18.2785 23.1071 21.3306 21.3287 24.9204C20.9803 25.6264 20.6648 26.3263 20.3855 27.0203C17.1951 26.4675 14.3713 24.4818 12.3496 21.9194C13.6774 25.5122 16.0326 28.2309 19.1117 29.9522C19.1147 29.9522 19.1207 29.9522 19.1237 29.9582C21.1725 30.9646 23.5277 31.4452 26.0902 31.6555H26.0992C28.7217 31.5294 31.0919 31.2049 33.2218 30.6852L33.5582 30.5981C36.0125 29.9672 38.1214 29.069 39.8908 27.9005C43.3725 25.5933 45.1148 22.5833 45.1148 18.8613C45.1148 16.7374 44.472 15.0611 43.1832 13.8385ZM35.625 24.1304C33.4982 25.317 30.8185 26.0259 27.5742 26.2602C28.7547 23.839 30.1997 21.7872 31.915 20.1049C33.6243 18.4227 35.2435 17.5815 36.7636 17.5815C38.1274 17.5815 38.8123 18.2785 38.8123 19.6754C38.8123 21.4598 37.7459 22.9408 35.625 24.1304Z" fill="white"/>
<path d="M27.2448 38.3635C22.3812 37.24 24.5051 32.8241 24.5682 32.6949C24.7514 32.6859 24.9347 32.6799 25.1149 32.6709C22.8258 32.4846 20.726 32.055 18.8965 31.1538C18.9686 31.1929 19.0437 31.2349 19.1188 31.274C18.7073 32.8421 18.5 34.3741 18.5 35.8762C18.5 37.3782 18.7794 38.67 19.3471 39.7334C19.6295 40.2771 19.99 40.7608 20.4256 41.1844C21.0204 41.7762 21.7474 42.2267 22.5885 42.5392C22.979 42.6834 23.3996 42.7975 23.8382 42.8876V42.9087C24.7635 43.0739 25.6647 43.122 26.5419 43.0709C31.3573 42.7885 35.4519 39.46 38.519 35.7771C35.2085 37.5645 31.1591 39.1236 27.2358 38.3605L27.2448 38.3635Z" fill="#8CC63F"/>
</svg>
